<svg width="56" height="54" viewBox="0 0 56 54" fill="none" xmlns="http://www.w3.org/2000/svg">
  <g opacity="0.4">
    <mask id="path-1-inside-1_2635_17750" fill="white">
      <path fill-rule="evenodd" clip-rule="evenodd" d="M7.10551 0.133638C3.4203 0.901433 0.677716 3.82513 0.103138 7.59856C0.00841476 8.22045 -0.0160051 12.7969 0.00940033 25.1625C0.0469609 43.3976 -0.000564775 42.0001 0.642674 43.7622C1.36848 45.7506 3.49859 47.9338 5.43861 48.6776C7.13267 49.3272 6.30841 49.2865 18.4941 49.3241C27.0947 49.3506 29.832 49.3266 30.2036 49.2214C31.5764 48.8329 32.1733 46.9985 31.3189 45.7949C31.1509 45.5583 29.7981 43.7557 28.3127 41.7891C26.8273 39.8227 25.6122 38.1813 25.6124 38.1415C25.6126 38.0786 41.1453 17.7835 41.3681 17.555C41.4152 17.5067 43.7411 20.2593 46.5368 23.6717L51.6198 29.8764L51.6745 32.1857C51.7284 34.4597 51.7338 34.5021 52.0231 34.9497C52.4755 35.65 53.0109 35.937 53.8646 35.937C54.7186 35.937 55.2538 35.6499 55.7062 34.9494L56 34.4944V21.0181C56 8.78061 55.9832 7.47982 55.8173 6.86837C55.495 5.67981 55.1789 4.93322 54.643 4.09539C53.3974 2.14746 51.7882 0.960468 49.3765 0.210519C48.8221 0.0381273 47.0934 0.0211799 28.2949 0.00400808C11.6995 -0.0111435 7.68239 0.0134356 7.10551 0.133638ZM49.1735 4.93064C50.1701 5.43547 50.7909 6.08542 51.2732 7.12875L51.6198 7.87847L51.6511 13.9391C51.6683 17.2725 51.6683 20.6539 51.6511 21.4534L51.6198 22.907L47.2174 17.5246C44.7961 14.5642 42.6525 12.0419 42.4539 11.9195C41.952 11.6101 40.8114 11.6105 40.3015 11.9201C40.0629 12.065 36.9345 16.0525 31.3873 23.2826C26.6865 29.4092 22.8112 34.4191 22.7754 34.4156C22.7395 34.4121 21.3836 32.6433 19.7623 30.4848C17.8703 27.9659 16.674 26.4707 16.4224 26.3104C15.894 25.9737 14.7748 25.9612 14.2379 26.2861C13.828 26.5342 8.96886 32.9085 8.55646 33.7391C7.62128 35.6227 9.62448 37.6026 11.4899 36.6385C11.8921 36.4306 12.2689 35.9953 13.6211 34.176C14.5245 32.9605 15.2884 31.9651 15.3185 31.9639C15.3603 31.9625 23.8622 43.1815 24.8844 44.5869L25.0874 44.8662L16.3977 44.8348L7.70779 44.8035L6.97629 44.4483C5.95821 43.954 5.32417 43.3178 4.83161 42.2962L4.42261 41.4482V24.6633V7.87847L4.76919 7.12875C4.95974 6.71651 5.31694 6.15534 5.56279 5.88194C6.04647 5.34411 7.04013 4.74433 7.72071 4.57946C7.97214 4.51852 16.3576 4.4835 28.2459 4.49394L48.346 4.51145L49.1735 4.93064ZM13.698 8.27376C12.4993 8.59565 11.6507 9.10486 10.7155 10.0632C9.76695 11.0354 9.28085 11.8965 8.96437 13.1643C8.56928 14.7478 8.77438 16.4696 9.53567 17.9587C10.0011 18.8691 11.3296 20.2307 12.2179 20.7077C13.6708 21.488 15.3508 21.6982 16.8958 21.2933C18.1328 20.9689 18.9729 20.4707 19.9214 19.4985C20.87 18.5264 21.3561 17.6653 21.6726 16.3975C22.0677 14.814 21.8626 13.0922 21.1013 11.6031C20.6359 10.6926 19.3073 9.33101 18.419 8.85401C16.9701 8.07601 15.2308 7.8622 13.698 8.27376ZM16.5214 12.9146C17.1743 13.3574 17.4538 13.9169 17.4538 14.7809C17.4538 15.6561 17.1737 16.2047 16.4902 16.6683C15.8792 17.0827 14.8098 17.0989 14.1887 16.7031C13.3597 16.1749 12.9702 15.1262 13.2324 14.1285C13.3831 13.5548 14.0532 12.82 14.575 12.6564C15.1492 12.4763 16.0517 12.596 16.5214 12.9146ZM44.9082 32.1852C44.4161 32.3395 43.7195 33.0812 43.5788 33.6009C43.5096 33.8563 43.4625 35.3286 43.4622 37.2498L43.4615 40.4705L40.086 40.5046L36.7104 40.5386L36.2668 40.8398C35.5833 41.3035 35.3033 41.8521 35.3033 42.7272C35.3033 43.6023 35.5833 44.1509 36.2668 44.6146L36.7104 44.9158L40.0801 44.9498L43.4499 44.9838L43.4831 48.429C43.5159 51.8312 43.5196 51.8797 43.7762 52.3027C43.9191 52.5384 44.2359 52.8667 44.48 53.0322C44.8498 53.2831 45.0454 53.3333 45.6517 53.3333C46.2579 53.3333 46.4536 53.2831 46.8234 53.0322C47.0675 52.8667 47.3843 52.5384 47.5272 52.3027C47.7838 51.8797 47.7875 51.8312 47.8202 48.429L47.8534 44.9838L51.2149 44.9498C54.5344 44.9162 54.5817 44.9124 54.9944 44.6494C55.2244 44.503 55.5447 44.1783 55.7062 43.9281C55.9509 43.5491 56 43.3485 56 42.7272C56 42.1059 55.9509 41.9053 55.7062 41.5263C55.5447 41.2761 55.2244 40.9514 54.9944 40.805C54.5817 40.542 54.5344 40.5382 51.2149 40.5046L47.8534 40.4706L47.8202 37.0254C47.7875 33.6232 47.7838 33.5747 47.5272 33.1517C47.0108 32.3003 45.8762 31.8816 44.9082 32.1852Z" />
    </mask>
    <path fill-rule="evenodd" clip-rule="evenodd" d="M7.10551 0.133638C3.4203 0.901433 0.677716 3.82513 0.103138 7.59856C0.00841476 8.22045 -0.0160051 12.7969 0.00940033 25.1625C0.0469609 43.3976 -0.000564775 42.0001 0.642674 43.7622C1.36848 45.7506 3.49859 47.9338 5.43861 48.6776C7.13267 49.3272 6.30841 49.2865 18.4941 49.3241C27.0947 49.3506 29.832 49.3266 30.2036 49.2214C31.5764 48.8329 32.1733 46.9985 31.3189 45.7949C31.1509 45.5583 29.7981 43.7557 28.3127 41.7891C26.8273 39.8227 25.6122 38.1813 25.6124 38.1415C25.6126 38.0786 41.1453 17.7835 41.3681 17.555C41.4152 17.5067 43.7411 20.2593 46.5368 23.6717L51.6198 29.8764L51.6745 32.1857C51.7284 34.4597 51.7338 34.5021 52.0231 34.9497C52.4755 35.65 53.0109 35.937 53.8646 35.937C54.7186 35.937 55.2538 35.6499 55.7062 34.9494L56 34.4944V21.0181C56 8.78061 55.9832 7.47982 55.8173 6.86837C55.495 5.67981 55.1789 4.93322 54.643 4.09539C53.3974 2.14746 51.7882 0.960468 49.3765 0.210519C48.8221 0.0381273 47.0934 0.0211799 28.2949 0.00400808C11.6995 -0.0111435 7.68239 0.0134356 7.10551 0.133638ZM49.1735 4.93064C50.1701 5.43547 50.7909 6.08542 51.2732 7.12875L51.6198 7.87847L51.6511 13.9391C51.6683 17.2725 51.6683 20.6539 51.6511 21.4534L51.6198 22.907L47.2174 17.5246C44.7961 14.5642 42.6525 12.0419 42.4539 11.9195C41.952 11.6101 40.8114 11.6105 40.3015 11.9201C40.0629 12.065 36.9345 16.0525 31.3873 23.2826C26.6865 29.4092 22.8112 34.4191 22.7754 34.4156C22.7395 34.4121 21.3836 32.6433 19.7623 30.4848C17.8703 27.9659 16.674 26.4707 16.4224 26.3104C15.894 25.9737 14.7748 25.9612 14.2379 26.2861C13.828 26.5342 8.96886 32.9085 8.55646 33.7391C7.62128 35.6227 9.62448 37.6026 11.4899 36.6385C11.8921 36.4306 12.2689 35.9953 13.6211 34.176C14.5245 32.9605 15.2884 31.9651 15.3185 31.9639C15.3603 31.9625 23.8622 43.1815 24.8844 44.5869L25.0874 44.8662L16.3977 44.8348L7.70779 44.8035L6.97629 44.4483C5.95821 43.954 5.32417 43.3178 4.83161 42.2962L4.42261 41.4482V24.6633V7.87847L4.76919 7.12875C4.95974 6.71651 5.31694 6.15534 5.56279 5.88194C6.04647 5.34411 7.04013 4.74433 7.72071 4.57946C7.97214 4.51852 16.3576 4.4835 28.2459 4.49394L48.346 4.51145L49.1735 4.93064ZM13.698 8.27376C12.4993 8.59565 11.6507 9.10486 10.7155 10.0632C9.76695 11.0354 9.28085 11.8965 8.96437 13.1643C8.56928 14.7478 8.77438 16.4696 9.53567 17.9587C10.0011 18.8691 11.3296 20.2307 12.2179 20.7077C13.6708 21.488 15.3508 21.6982 16.8958 21.2933C18.1328 20.9689 18.9729 20.4707 19.9214 19.4985C20.87 18.5264 21.3561 17.6653 21.6726 16.3975C22.0677 14.814 21.8626 13.0922 21.1013 11.6031C20.6359 10.6926 19.3073 9.33101 18.419 8.85401C16.9701 8.07601 15.2308 7.8622 13.698 8.27376ZM16.5214 12.9146C17.1743 13.3574 17.4538 13.9169 17.4538 14.7809C17.4538 15.6561 17.1737 16.2047 16.4902 16.6683C15.8792 17.0827 14.8098 17.0989 14.1887 16.7031C13.3597 16.1749 12.9702 15.1262 13.2324 14.1285C13.3831 13.5548 14.0532 12.82 14.575 12.6564C15.1492 12.4763 16.0517 12.596 16.5214 12.9146ZM44.9082 32.1852C44.4161 32.3395 43.7195 33.0812 43.5788 33.6009C43.5096 33.8563 43.4625 35.3286 43.4622 37.2498L43.4615 40.4705L40.086 40.5046L36.7104 40.5386L36.2668 40.8398C35.5833 41.3035 35.3033 41.8521 35.3033 42.7272C35.3033 43.6023 35.5833 44.1509 36.2668 44.6146L36.7104 44.9158L40.0801 44.9498L43.4499 44.9838L43.4831 48.429C43.5159 51.8312 43.5196 51.8797 43.7762 52.3027C43.9191 52.5384 44.2359 52.8667 44.48 53.0322C44.8498 53.2831 45.0454 53.3333 45.6517 53.3333C46.2579 53.3333 46.4536 53.2831 46.8234 53.0322C47.0675 52.8667 47.3843 52.5384 47.5272 52.3027C47.7838 51.8797 47.7875 51.8312 47.8202 48.429L47.8534 44.9838L51.2149 44.9498C54.5344 44.9162 54.5817 44.9124 54.9944 44.6494C55.2244 44.503 55.5447 44.1783 55.7062 43.9281C55.9509 43.5491 56 43.3485 56 42.7272C56 42.1059 55.9509 41.9053 55.7062 41.5263C55.5447 41.2761 55.2244 40.9514 54.9944 40.805C54.5817 40.542 54.5344 40.5382 51.2149 40.5046L47.8534 40.4706L47.8202 37.0254C47.7875 33.6232 47.7838 33.5747 47.5272 33.1517C47.0108 32.3003 45.8762 31.8816 44.9082 32.1852Z" fill="#7C7575" stroke="white" stroke-width="2.13333" mask="url(#path-1-inside-1_2635_17750)" />
  </g>
</svg>