<svg width="20" height="20" viewBox="0 0 20 20" fill="none" xmlns="http://www.w3.org/2000/svg">
  <path d="M10.0007 1.66669C7.70315 1.66669 5.83398 3.53585 5.83398 5.83335V8.33335H5.00065C4.08148 8.33335 3.33398 9.08085 3.33398 10V16.6667C3.33398 17.5859 4.08148 18.3334 5.00065 18.3334H15.0007C15.9198 18.3334 16.6673 17.5859 16.6673 16.6667V10C16.6673 9.08085 15.9198 8.33335 15.0007 8.33335H14.1673V5.83335C14.1673 3.53585 12.2982 1.66669 10.0007 1.66669ZM15.0007 10L15.0023 16.6667H5.00065V10H15.0007ZM7.50065 8.33335V5.83335C7.50065 4.45502 8.62232 3.33335 10.0007 3.33335C11.379 3.33335 12.5007 4.45502 12.5007 5.83335V8.33335H7.50065Z" fill="#FF852C" />
</svg>