<svg width="80" height="80" viewBox="0 0 80 80" fill="none" xmlns="http://www.w3.org/2000/svg">
<rect width="80" height="80" rx="40" fill="#EAEAEA"/>
<path d="M40 19.1666C34.2562 19.1666 29.5833 23.8395 29.5833 29.5833C29.5833 35.327 34.2562 40 40 40C45.7437 40 50.4167 35.327 50.4167 29.5833C50.4167 23.8395 45.7437 19.1666 40 19.1666ZM40 35.8333C36.5542 35.8333 33.75 33.0291 33.75 29.5833C33.75 26.1375 36.5542 23.3333 40 23.3333C43.4458 23.3333 46.25 26.1375 46.25 29.5833C46.25 33.0291 43.4458 35.8333 40 35.8333ZM58.75 58.75V56.6666C58.75 48.627 52.2062 42.0833 44.1667 42.0833H35.8333C27.7917 42.0833 21.25 48.627 21.25 56.6666V58.75H25.4167V56.6666C25.4167 50.9229 30.0896 46.25 35.8333 46.25H44.1667C49.9104 46.25 54.5833 50.9229 54.5833 56.6666V58.75H58.75Z" fill="#BFBEBE"/>
</svg>
