<svg width="21" height="20" viewBox="0 0 21 20" fill="none" xmlns="http://www.w3.org/2000/svg">
  <path d="M6.33301 14.1775L10.0105 14.165L18.0372 6.21499C18.3522 5.89999 18.5255 5.48166 18.5255 5.03666C18.5255 4.59166 18.3522 4.17332 18.0372 3.85832L16.7155 2.53666C16.0855 1.90666 14.9863 1.90999 14.3613 2.53416L6.33301 10.4858V14.1775ZM15.5372 3.71499L16.8613 5.03416L15.5305 6.35249L14.2088 5.03166L15.5372 3.71499ZM7.99967 11.1808L13.0247 6.20332L14.3463 7.52499L9.32217 12.5008L7.99967 12.505V11.1808Z" fill="#4B4242" />
  <path d="M4.66667 17.5H16.3333C17.2525 17.5 18 16.7525 18 15.8333V8.61L16.3333 10.2767V15.8333H7.29833C7.27667 15.8333 7.25417 15.8417 7.2325 15.8417C7.205 15.8417 7.1775 15.8342 7.14917 15.8333H4.66667V4.16667H10.3725L12.0392 2.5H4.66667C3.7475 2.5 3 3.2475 3 4.16667V15.8333C3 16.7525 3.7475 17.5 4.66667 17.5Z" fill="#4B4242" />
</svg>