<svg width="32" height="33" viewBox="0 0 32 33" fill="none" xmlns="http://www.w3.org/2000/svg">
  <path d="M29.2626 12.7387C29.0906 12.2347 28.6359 11.8787 28.1052 11.8374L20.5039 11.2334L17.2146 3.95208C16.9999 3.47341 16.5239 3.16675 15.9999 3.16675C15.4759 3.16675 14.9999 3.47341 14.7852 3.95075L11.4959 11.2334L3.89456 11.8374C3.37322 11.8787 2.92389 12.2214 2.74656 12.7134C2.56922 13.2054 2.69456 13.7561 3.06922 14.1214L8.68656 19.5974L6.69989 28.2001C6.57722 28.7321 6.79189 29.2854 7.24122 29.5961C7.47056 29.7534 7.73456 29.8334 7.99989 29.8334C8.25722 29.8334 8.51589 29.7587 8.73989 29.6094L15.9999 24.7694L23.2599 29.6094C23.7239 29.9188 24.3332 29.9067 24.7866 29.5774C25.2372 29.2481 25.4359 28.6707 25.2826 28.1347L22.8439 19.6014L28.8919 14.1587C29.2879 13.8014 29.4332 13.2441 29.2626 12.7387Z" fill="#FFCA42" />
</svg>