<svg width="32" height="32" viewBox="0 0 32 32" fill="none" xmlns="http://www.w3.org/2000/svg">
<rect width="32" height="32" rx="16" fill="#EAEAEA"/>
<path d="M16 7.66675C13.7025 7.66675 11.8333 9.53591 11.8333 11.8334C11.8333 14.1309 13.7025 16.0001 16 16.0001C18.2975 16.0001 20.1667 14.1309 20.1667 11.8334C20.1667 9.53591 18.2975 7.66675 16 7.66675ZM16 14.3334C14.6217 14.3334 13.5 13.2117 13.5 11.8334C13.5 10.4551 14.6217 9.33341 16 9.33341C17.3783 9.33341 18.5 10.4551 18.5 11.8334C18.5 13.2117 17.3783 14.3334 16 14.3334ZM23.5 23.5001V22.6667C23.5 19.4509 20.8825 16.8334 17.6667 16.8334H14.3333C11.1167 16.8334 8.5 19.4509 8.5 22.6667V23.5001H10.1667V22.6667C10.1667 20.3692 12.0358 18.5001 14.3333 18.5001H17.6667C19.9642 18.5001 21.8333 20.3692 21.8333 22.6667V23.5001H23.5Z" fill="#BFBEBE"/>
</svg>
