<svg width="20" height="20" viewBox="0 0 20 20" fill="none" xmlns="http://www.w3.org/2000/svg">
<path d="M10.0003 1.66666C5.40533 1.66666 1.66699 4.65749 1.66699 8.33332C1.66699 10.7567 3.24866 12.93 5.83366 14.1117V18.3333L10.2837 14.9958C14.7478 14.8767 18.3337 11.9333 18.3337 8.33332C18.3337 4.65749 14.5953 1.66666 10.0003 1.66666ZM10.0003 13.3333H9.72283L7.50033 15V12.9858L6.96616 12.78C4.72533 11.9175 3.33366 10.2133 3.33366 8.33332C3.33366 5.57582 6.32449 3.33332 10.0003 3.33332C13.6762 3.33332 16.667 5.57582 16.667 8.33332C16.667 11.0908 13.6762 13.3333 10.0003 13.3333Z" fill="#4B4242"/>
</svg>
