<svg width="20" height="20" viewBox="0 0 20 20" fill="none" xmlns="http://www.w3.org/2000/svg">
<path d="M18.2891 7.64916C18.1816 7.33416 17.8974 7.11166 17.5657 7.08582L12.8149 6.70832L10.7591 2.15749C10.6249 1.85832 10.3274 1.66666 9.9999 1.66666C9.6724 1.66666 9.3749 1.85832 9.24073 2.15666L7.1849 6.70832L2.43407 7.08582C2.10823 7.11166 1.8274 7.32582 1.71657 7.63332C1.60573 7.94082 1.68407 8.28499 1.91823 8.51332L5.42907 11.9358L4.1874 17.3125C4.11073 17.645 4.2449 17.9908 4.52573 18.185C4.66907 18.2833 4.83407 18.3333 4.9999 18.3333C5.16073 18.3333 5.3224 18.2867 5.4624 18.1933L9.9999 15.1683L14.5374 18.1933C14.8274 18.3867 15.2082 18.3792 15.4916 18.1733C15.7732 17.9675 15.8974 17.6067 15.8016 17.2717L14.2774 11.9383L18.0574 8.53666C18.3049 8.31332 18.3957 7.96499 18.2891 7.64916Z" fill="#FFCA42"/>
</svg>
