<svg width="20" height="20" viewBox="0 0 20 20" fill="none" xmlns="http://www.w3.org/2000/svg">
<path d="M10.0003 1.66669C5.40533 1.66669 1.66699 5.40502 1.66699 10C1.66699 14.595 5.40533 18.3334 10.0003 18.3334C14.5953 18.3334 18.3337 14.595 18.3337 10C18.3337 5.40502 14.5953 1.66669 10.0003 1.66669ZM10.0003 16.6667C6.32449 16.6667 3.33366 13.6759 3.33366 10C3.33366 6.32419 6.32449 3.33335 10.0003 3.33335C13.6762 3.33335 16.667 6.32419 16.667 10C16.667 13.6759 13.6762 16.6667 10.0003 16.6667Z" fill="#4B4242"/>
<path d="M10.8337 5.83334H9.16699V10.345L11.9112 13.0892L13.0895 11.9108L10.8337 9.65501V5.83334Z" fill="#4B4242"/>
</svg>
