<svg width="64" height="65" viewBox="0 0 64 65" fill="none" xmlns="http://www.w3.org/2000/svg">
<rect y="0.5" width="64" height="64" rx="32" fill="#EAEAEA"/>
<path d="M32 15.8333C27.405 15.8333 23.6667 19.5716 23.6667 24.1666C23.6667 28.7616 27.405 32.5 32 32.5C36.595 32.5 40.3333 28.7616 40.3333 24.1666C40.3333 19.5716 36.595 15.8333 32 15.8333ZM32 29.1666C29.2433 29.1666 27 26.9233 27 24.1666C27 21.41 29.2433 19.1666 32 19.1666C34.7567 19.1666 37 21.41 37 24.1666C37 26.9233 34.7567 29.1666 32 29.1666ZM47 47.5V45.8333C47 39.4016 41.765 34.1666 35.3333 34.1666H28.6667C22.2333 34.1666 17 39.4016 17 45.8333V47.5H20.3333V45.8333C20.3333 41.2383 24.0717 37.5 28.6667 37.5H35.3333C39.9283 37.5 43.6667 41.2383 43.6667 45.8333V47.5H47Z" fill="#BFBEBE"/>
</svg>
