<svg width="64" height="64" viewBox="0 0 64 64" fill="none" xmlns="http://www.w3.org/2000/svg">
<rect width="64" height="64" rx="32" fill="#EAEAEA"/>
<path d="M32 15.3333C27.405 15.3333 23.6667 19.0717 23.6667 23.6667C23.6667 28.2617 27.405 32 32 32C36.595 32 40.3333 28.2617 40.3333 23.6667C40.3333 19.0717 36.595 15.3333 32 15.3333ZM32 28.6667C29.2433 28.6667 27 26.4233 27 23.6667C27 20.91 29.2433 18.6667 32 18.6667C34.7567 18.6667 37 20.91 37 23.6667C37 26.4233 34.7567 28.6667 32 28.6667ZM47 47V45.3333C47 38.9017 41.765 33.6667 35.3333 33.6667H28.6667C22.2333 33.6667 17 38.9017 17 45.3333V47H20.3333V45.3333C20.3333 40.7383 24.0717 37 28.6667 37H35.3333C39.9283 37 43.6667 40.7383 43.6667 45.3333V47H47Z" fill="#BFBEBE"/>
</svg>
