<svg width="24" height="24" viewBox="0 0 24 24" fill="none" xmlns="http://www.w3.org/2000/svg">
  <path d="M12 9C11.206 9.00524 10.4459 9.32299 9.88447 9.88447C9.32299 10.4459 9.00524 11.206 9 12C9 13.642 10.358 15 12 15C13.641 15 15 13.642 15 12C15 10.359 13.641 9 12 9Z" fill="#4B4242" />
  <path d="M12.0008 5C4.36778 5 2.07378 11.617 2.05278 11.684L1.94678 12L2.05178 12.316C2.07378 12.383 4.36778 19 12.0008 19C19.6338 19 21.9278 12.383 21.9488 12.316L22.0548 12L21.9498 11.684C21.9278 11.617 19.6338 5 12.0008 5ZM12.0008 17C6.64978 17 4.57678 13.154 4.07478 12C4.57878 10.842 6.65278 7 12.0008 7C17.3518 7 19.4248 10.846 19.9268 12C19.4228 13.158 17.3488 17 12.0008 17Z" fill="#4B4242" />
</svg>