<svg width="24" height="24" viewBox="0 0 24 24" fill="none" xmlns="http://www.w3.org/2000/svg">
  <path d="M12.0002 19C12.9462 19 13.8102 18.897 14.5982 18.719L12.8412 16.962C12.5682 16.983 12.2912 17 12.0002 17C6.64922 17 4.57622 13.154 4.07422 12C4.45117 11.1588 4.96027 10.3833 5.58222 9.70297L4.18422 8.30497C2.64622 9.97197 2.06322 11.651 2.05222 11.684C1.98324 11.8893 1.98324 12.1116 2.05222 12.317C2.07322 12.383 4.36722 19 12.0002 19ZM12.0002 4.99997C10.1632 4.99997 8.65422 5.39597 7.39622 5.98097L3.70722 2.29297L2.29322 3.70697L20.2932 21.707L21.7072 20.293L18.3882 16.974C21.0022 15.023 21.9352 12.359 21.9492 12.317C22.0182 12.1116 22.0182 11.8893 21.9492 11.684C21.9272 11.617 19.6332 4.99997 12.0002 4.99997ZM16.9722 15.558L14.6922 13.278C14.8822 12.888 15.0002 12.459 15.0002 12C15.0002 10.359 13.6412 8.99997 12.0002 8.99997C11.5412 8.99997 11.1122 9.11797 10.7232 9.30897L8.91522 7.50097C9.90774 7.16038 10.9509 6.99097 12.0002 6.99997C17.3512 6.99997 19.4242 10.846 19.9262 12C19.6242 12.692 18.7602 14.342 16.9722 15.558Z" fill="#4B4242" />
</svg>